HIERARCHY
ROOT Hips
{
    OFFSET 0.000000 0.000000 0.000000
    CHANNELS 6 Xposition Yposition Zposition Zrotation Xrotation Yrotation
    JOINT Spine
    {
        OFFSET -0.000000 14.517291 0.000000
        CHANNELS 3 Zrotation Xrotation Yrotation
        JOINT Spine1
        {
            OFFSET -0.000000 37.558300 0.000000
            CHANNELS 3 Zrotation Xrotation Yrotation
            JOINT Neck
            {
                OFFSET -0.000000 37.404057 3.400369
                CHANNELS 3 Zrotation Xrotation Yrotation
                JOINT Head
                {
                    OFFSET -0.000000 24.785618 -3.540803
                    CHANNELS 3 Zrotation Xrotation Yrotation
                    End Site
                    {
                        OFFSET -0.000000 35.408028 0.000000
                    }
                }
            }
            JOINT LeftShoulder
            {
                OFFSET 6.992933 33.973492 -0.192664
                CHANNELS 3 Zrotation Xrotation Yrotation
                JOINT LeftArm
                {
                    OFFSET 21.527611 0.000000 0.000000
                    CHANNELS 3 Zrotation Xrotation Yrotation
                    JOINT LeftForeArm
                    {
                        OFFSET 56.353916 0.000000 0.000000
                        CHANNELS 3 Zrotation Xrotation Yrotation
                        JOINT LeftHand
                        {
                            OFFSET 47.774071 0.000000 0.000000
                            CHANNELS 3 Zrotation Xrotation Yrotation
                            End Site
                            {
                                OFFSET 26.556021 0.000000 0.000000
                            }
                        }
                    }
                }
            }
            JOINT RightShoulder
            {
                OFFSET -7.065357 33.973492 -0.192664
                CHANNELS 3 Zrotation Xrotation Yrotation
                JOINT RightArm
                {
                    OFFSET -21.527611 0.000000 0.000000
                    CHANNELS 3 Zrotation Xrotation Yrotation
                    JOINT RightForeArm
                    {
                        OFFSET -56.353916 0.000000 0.000000
                        CHANNELS 3 Zrotation Xrotation Yrotation
                        JOINT RightHand
                        {
                            OFFSET -47.774071 0.000000 0.000000
                            CHANNELS 3 Zrotation Xrotation Yrotation
                            End Site
                            {
                                OFFSET -26.556021 0.000000 0.000000
                            }
                        }
                    }
                }
            }
        }
    }
    JOINT LeftUpLeg
    {
        OFFSET 17.704014 0.000000 0.000000
        CHANNELS 3 Zrotation Xrotation Yrotation
        JOINT LeftLeg
        {
            OFFSET -0.000000 -81.181816 0.000000
            CHANNELS 3 Zrotation Xrotation Yrotation
            JOINT LeftFoot
            {
                OFFSET -0.000000 -62.821102 0.000000
                CHANNELS 3 Zrotation Xrotation Yrotation
                JOINT LeftToeBase
                {
                    OFFSET -0.000000 -11.507608 26.556021
                    CHANNELS 3 Zrotation Xrotation Yrotation
                    End Site
                    {
                        OFFSET -0.000000 0.000000 7.081605
                    }
                }
            }
        }
    }
    JOINT RightUpLeg
    {
        OFFSET -17.704014 0.000000 0.000000
        CHANNELS 3 Zrotation Xrotation Yrotation
        JOINT RightLeg
        {
            OFFSET -0.000000 -81.181816 0.000000
            CHANNELS 3 Zrotation Xrotation Yrotation
            JOINT RightFoot
            {
                OFFSET -0.000000 -62.821102 0.000000
                CHANNELS 3 Zrotation Xrotation Yrotation
                JOINT RightToeBase
                {
                    OFFSET -0.000000 -11.507608 26.556021
                    CHANNELS 3 Zrotation Xrotation Yrotation
                    End Site
                    {
                        OFFSET -0.000000 0.000000 7.081605
                    }
                }
            }
        }
    }
}
MOTION
Frames:    9
Frame Time:    0.008333
28.181583    152.459274    -113.234901    -0.069513    -7.239010    33.044811    0.341076    3.538814    -1.483584    -4.751809    3.269473    -0.353592    6.518360    3.641554    -13.941422    11.085686    0.764386    -13.800237    6.330154    7.399667    -20.249821    -24.218676    23.528442    -64.373878    3.444388    -15.063145    -93.236160    11.271251    -12.708140    -12.347554    -7.553970    -0.914279    -1.481822    25.312975    -24.353361    54.782242    -19.991501    -12.311878    60.881725    -5.650541    -2.357044    36.441414    2.184940    -10.295938    -5.365601    -16.810598    44.278385    -14.827680    22.436714    -21.850534    45.940216    0.000000    0.000000    0.000000    -11.115705    -31.244337    -11.970439    12.694116    25.550005    -10.726068    19.477497    14.927900    -20.355383    0.000000    0.000000    0.000000    
28.138287    152.499191    -113.387444    -0.142010    -7.321696    33.030067    0.427379    3.566043    -1.461951    -4.717556    3.268234    -0.346466    6.474293    3.713199    -13.980766    11.148561    0.715536    -13.818986    6.275777    7.403541    -20.268078    -24.305428    23.508341    -64.295868    3.422183    -14.990340    -93.274239    11.247404    -12.650598    -12.328244    -7.576598    -0.951796    -1.511527    25.307131    -24.353674    54.757698    -19.982845    -12.284673    60.851383    -5.676645    -2.347564    36.390129    2.223885    -10.334917    -5.472021    -16.788910    44.278728    -14.782685    22.412100    -21.780870    45.983395    0.000000    0.000000    0.000000    -11.497957    -31.210983    -11.948623    12.795659    26.014280    -10.816603    19.113928    14.445730    -20.805809    0.000000    0.000000    0.000000    
28.099367    152.543030    -113.522491    -0.217668    -7.410780    33.010277    0.529110    3.575132    -1.447731    -4.722243    3.290009    -0.339549    6.472934    3.777703    -13.986085    11.218146    0.644341    -13.804440    6.309307    7.514536    -20.204479    -24.268364    23.484617    -64.400543    3.444102    -15.088413    -93.274742    11.244594    -12.726262    -12.324651    -7.557090    -0.927035    -1.518086    25.290482    -24.410301    54.755421    -19.962427    -12.283448    60.806870    -5.659150    -2.360721    36.336563    2.268565    -10.359017    -5.575978    -16.754421    44.272705    -14.733088    22.376652    -21.730545    46.011471    0.000000    0.000000    0.000000    -11.877646    -31.159430    -11.843014    12.953040    26.456308    -11.017930    18.771431    13.997814    -21.288136    0.000000    0.000000    0.000000    
28.059704    152.584106    -113.652847    -0.289687    -7.515862    33.000404    0.635806    3.630255    -1.430404    -4.716967    3.284203    -0.332924    6.513769    3.791366    -14.003860    11.180099    0.613340    -13.829054    6.311367    7.512719    -20.207119    -24.369043    23.485323    -64.351891    3.390277    -15.032529    -93.341057    11.363606    -12.733314    -12.316305    -7.539221    -0.937110    -1.530618    25.279402    -24.458717    54.732155    -19.929375    -12.276070    60.782269    -5.607674    -2.364961    36.383472    2.314443    -10.367013    -5.707026    -16.747862    44.253052    -14.655122    22.310734    -21.765627    46.161961    0.000000    0.000000    0.000000    -12.257926    -31.067627    -11.844229    13.044690    26.881262    -11.227818    18.308437    13.688126    -21.546631    0.000000    0.000000    0.000000    
28.017294    152.619308    -113.772163    -0.370601    -7.622323    32.979362    0.733819    3.663171    -1.400159    -4.689250    3.292525    -0.322112    6.561535    3.809284    -14.011143    11.149446    0.568913    -13.840978    6.304335    7.519551    -20.186941    -24.424847    23.504362    -64.350990    3.395583    -15.016940    -93.349953    11.333889    -12.705229    -12.284015    -7.514750    -0.955161    -1.515465    25.224924    -24.499130    54.669262    -19.921103    -12.287771    60.751740    -5.585102    -2.380575    36.364033    2.383882    -10.372333    -5.805489    -16.722601    44.260845    -14.590920    22.318272    -21.701538    46.076965    0.000000    0.000000    0.000000    -12.607368    -30.977736    -11.843134    13.109112    27.298529    -11.482539    17.834255    13.443449    -21.779028    0.000000    0.000000    0.000000    
27.975327    152.649429    -113.881302    -0.452734    -7.725683    32.954906    0.823746    3.680812    -1.364301    -4.654082    3.307286    -0.309648    6.603506    3.833259    -14.027112    11.126943    0.543421    -13.861680    6.287858    7.503548    -20.228506    -24.474953    23.549580    -64.275566    3.459847    -15.033466    -93.370117    11.220751    -12.635839    -12.219523    -7.497514    -0.984742    -1.521128    25.181898    -24.486767    54.621120    -19.951361    -12.317556    60.694256    -5.557193    -2.395716    36.340336    2.452995    -10.378587    -5.879373    -16.679619    44.270794    -14.584284    22.344748    -21.645599    46.128235    0.000000    0.000000    0.000000    -12.978567    -30.877480    -11.832943    13.220444    27.689798    -11.673958    17.272655    13.322087    -21.943277    0.000000    0.000000    0.000000    
27.943123    152.679672    -113.970650    -0.528083    -7.828150    32.931667    0.903709    3.677500    -1.342700    -4.599553    3.347157    -0.301457    6.583513    3.847219    -14.043983    11.165153    0.544446    -13.871157    6.296321    7.570098    -20.151859    -24.481653    23.532181    -64.353180    3.434207    -15.034823    -93.380646    11.272590    -12.664447    -12.176288    -7.508590    -1.006820    -1.507300    25.175753    -24.513424    54.598225    -19.952454    -12.299096    60.637230    -5.561540    -2.393205    36.377445    2.523503    -10.367448    -5.970357    -16.670555    44.255699    -14.504554    22.331367    -21.640755    46.135319    0.000000    0.000000    0.000000    -13.332596    -30.757719    -11.873525    13.227210    28.059988    -11.716681    16.717852    13.285960    -22.030586    0.000000    0.000000    0.000000    
27.905619    152.702835    -114.021828    -0.608103    -7.951597    32.896805    0.962931    3.682566    -1.302662    -4.501479    3.385936    -0.288762    6.603930    3.842094    -14.046290    11.135816    0.555170    -13.881208    6.276537    7.562644    -20.126917    -24.529640    23.588718    -64.334648    3.399395    -15.036296    -93.416794    11.292061    -12.701556    -12.173824    -7.530850    -0.978643    -1.535844    25.181765    -24.535387    54.615768    -19.988001    -12.315952    60.570133    -5.516688    -2.393932    36.450817    2.629265    -10.333179    -6.027850    -16.662457    44.264812    -14.531008    22.385654    -21.600941    46.226425    0.000000    0.000000    0.000000    -13.657465    -30.585073    -11.842025    13.265389    28.335428    -11.760795    16.165760    13.315297    -22.088541    0.000000    0.000000    0.000000    
27.872244    152.742905    -114.097298    -0.676386    -8.039615    32.849625    1.021529    3.696216    -1.246056    -4.449136    3.382919    -0.270922    6.596996    3.837247    -14.071916    11.173194    0.596724    -13.906540    6.274311    7.558628    -20.117516    -24.563402    23.648613    -64.314064    3.379850    -15.029413    -93.444183    11.310319    -12.711246    -12.133805    -7.520092    -0.960598    -1.571406    25.175535    -24.538494    54.629585    -20.006441    -12.340767    60.509403    -5.477372    -2.413762    36.526951    2.696978    -10.321652    -6.086824    -16.641777    44.248589    -14.503411    22.380756    -21.554806    46.249474    0.000000    0.000000    0.000000    -13.998740    -30.443312    -11.872231    13.221247    28.598074    -11.723330    15.693256    13.501372    -22.095121    0.000000    0.000000    0.000000    
